<svg width="32" height="32" viewBox="0 0 32 32" fill="none" xmlns="http://www.w3.org/2000/svg">
  <rect width="32" height="32" rx="6" fill="#0066CC"/>
  <path d="M7 7H25V15C25 20.5228 20.5228 25 15 25H7V7Z" fill="white"/>
  <path d="M16 12C17.6569 12 19 10.6569 19 9C19 7.34315 17.6569 6 16 6C14.3431 6 13 7.34315 13 9C13 10.6569 14.3431 12 16 12Z" fill="#0066CC"/>
  <path d="M11 18C12.6569 18 14 16.6569 14 15C14 13.3431 12.6569 12 11 12C9.34315 12 8 13.3431 8 15C8 16.6569 9.34315 18 11 18Z" fill="#0066CC"/>
  <path d="M21 18C22.6569 18 24 16.6569 24 15C24 13.3431 22.6569 12 21 12C19.3431 12 18 13.3431 18 15C18 16.6569 19.3431 18 21 18Z" fill="#0066CC"/>
  <path d="M16 24C17.6569 24 19 22.6569 19 21C19 19.3431 17.6569 18 16 18C14.3431 18 13 19.3431 13 21C13 22.6569 14.3431 24 16 24Z" fill="#0066CC"/>
</svg> 