<svg width="48" height="48" viewBox="0 0 48 48" fill="none" xmlns="http://www.w3.org/2000/svg">
  <path d="M10 10H38V22C38 30.8366 30.8366 38 22 38H10V10Z" fill="#0066CC"/>
  <path d="M24 18C26.7614 18 29 15.7614 29 13C29 10.2386 26.7614 8 24 8C21.2386 8 19 10.2386 19 13C19 15.7614 21.2386 18 24 18Z" fill="white"/>
  <path d="M16 27C18.7614 27 21 24.7614 21 22C21 19.2386 18.7614 17 16 17C13.2386 17 11 19.2386 11 22C11 24.7614 13.2386 27 16 27Z" fill="white"/>
  <path d="M32 27C34.7614 27 37 24.7614 37 22C37 19.2386 34.7614 17 32 17C29.2386 17 27 19.2386 27 22C27 24.7614 29.2386 27 32 27Z" fill="white"/>
  <path d="M24 36C26.7614 36 29 33.7614 29 31C29 28.2386 26.7614 26 24 26C21.2386 26 19 28.2386 19 31C19 33.7614 21.2386 36 24 36Z" fill="white"/>
  <path d="M19.5 13.5L16 19M29 13.5L32.5 19M24 18V26M16 27H24M32 27H24" stroke="white" stroke-width="1.5" stroke-linecap="round"/>
</svg> 